<svg id="a6165653-2719-4fed-8ed9-8fe7d02b0919" data-name="Layer 1" xmlns="http://www.w3.org/2000/svg" width="777.80549" height="639.55194" viewBox="0 0 777.80549 639.55194"><path d="M941.53245,725.07007c13.35843-15.199,76.26477-90.00934,31.55383-102.34248-33.58077-9.26295-37.322,41.69916-36.1949,75.89894-5.37716-23.04158-15.813-49.95781-34.14772-38.0819-26.42393,17.11543,23.08826,54.99167,36.02171,64.28979.21236,1.89073.35246,2.94155.35246,2.94155s.5305-.57846,1.47618-1.643c.73881.51734,1.14973.79519,1.14973.79519S941.675,726.2579,941.53245,725.07007Z" transform="translate(-211.09726 -130.22403)" fill="#e6e6e6"/><path d="M264.28147,766.67679c15.3-17.40808,87.3493-103.09155,36.14-117.21722-38.46149-10.60926-42.74646,47.75982-41.45557,86.93029-6.15869-26.3905-18.11126-57.21881-39.11084-43.61682-30.26446,19.603,26.444,62.98432,41.25721,73.63385.24322,2.16553.40368,3.36908.40368,3.36908s.60761-.66254,1.69074-1.88183c.84619.59252,1.31683.91076,1.31683.91076S264.44474,768.03726,264.28147,766.67679Z" transform="translate(-211.09726 -130.22403)" fill="#e6e6e6"/><path d="M432.90283,181.27832a5.00589,5.00589,0,0,0-5,5v535a5.00589,5.00589,0,0,0,5,5H863.90234a5.00588,5.00588,0,0,0,5-5v-535a5.00588,5.00588,0,0,0-5-5Z" transform="translate(-211.09726 -130.22403)" fill="#e6e6e6"/><path d="M795.40274,414.90335h-294a7.5,7.5,0,0,1,0-15h294a7.5,7.5,0,0,1,0,15Z" transform="translate(-211.09726 -130.22403)" fill="#fff"/><path d="M797.927,275.15335H602.87847c-2.748,0-4.97573-3.35791-4.97573-7.5s2.22774-7.5,4.97573-7.5H797.927c2.74831,0,4.97572,3.35791,4.97572,7.5S800.67533,275.15335,797.927,275.15335Z" transform="translate(-211.09726 -130.22403)" fill="#fff"/><path d="M797.927,318.15335H602.87847c-2.748,0-4.97573-3.35791-4.97573-7.5s2.22774-7.5,4.97573-7.5H797.927c2.74831,0,4.97572,3.35791,4.97572,7.5S800.67533,318.15335,797.927,318.15335Z" transform="translate(-211.09726 -130.22403)" fill="#fff"/><path d="M795.40274,463.40335h-294a7.5,7.5,0,0,1,0-15h294a7.5,7.5,0,0,1,0,15Z" transform="translate(-211.09726 -130.22403)" fill="#fff"/><path d="M795.40274,511.90335h-294a7.5,7.5,0,0,1,0-15h294a7.5,7.5,0,0,1,0,15Z" transform="translate(-211.09726 -130.22403)" fill="#fff"/><path d="M795.40274,560.40335h-294a7.5,7.5,0,0,1,0-15h294a7.5,7.5,0,0,1,0,15Z" transform="translate(-211.09726 -130.22403)" fill="#fff"/><path d="M795.40274,608.90335h-294a7.5,7.5,0,0,1,0-15h294a7.5,7.5,0,0,1,0,15Z" transform="translate(-211.09726 -130.22403)" fill="#fff"/><path d="M795.40274,657.40335h-294a7.5,7.5,0,0,1,0-15h294a7.5,7.5,0,0,1,0,15Z" transform="translate(-211.09726 -130.22403)" fill="#fff"/><circle cx="322.30549" cy="159.42932" r="39.5" fill="#fff"/><path d="M594.265,414.90335" transform="translate(-211.09726 -130.22403)" fill="#fff"/><path d="M503.50718,428.18833l-58.90306,31.31555-.74561-26.09629c19.22553-3.20948,37.51669-8.7974,54.42941-17.8946l6.1605-15.22008a10.31753,10.31753,0,0,1,17.53643-2.67788l0,0a10.31752,10.31752,0,0,1-.90847,14.06885Z" transform="translate(-211.09726 -130.22403)" fill="#ffb8b8"/><path d="M359.58341,608.993v0a11.57378,11.57378,0,0,1,1.46928-9.36311L373.992,579.77208a22.6122,22.6122,0,0,1,29.335-7.73927h0c-5.438,9.25647-4.67994,17.37679,1.87806,24.43365A117.63085,117.63085,0,0,0,377.269,615.51139,11.57386,11.57386,0,0,1,359.58341,608.993Z" transform="translate(-211.09726 -130.22403)" fill="#2f2e41"/><path d="M506.19,583.02865l0,0a22.20317,22.20317,0,0,1-18.87085,10.77909l-85.96027.65122-3.728-21.62265,38.026-11.18412-32.06116-24.60508,35.04359-41.00845L502.2893,555.363A22.20316,22.20316,0,0,1,506.19,583.02865Z" transform="translate(-211.09726 -130.22403)" fill="#2f2e41"/><path d="M387.93788,730.90531H367.80646C349.73137,607.00759,331.33263,482.76345,385.70106,436.39l64.12232,10.43852-8.2017,54.4294-35.7892,41.00846Z" transform="translate(-211.09726 -130.22403)" fill="#2f2e41"/><path d="M403.63439,768.97185h0a11.57385,11.57385,0,0,1-9.3632-1.46873L374.41263,754.565a22.61221,22.61221,0,0,1-7.741-29.33451v0c9.2568,5.43749,17.37707,4.67891,24.43355-1.87951a117.6303,117.6303,0,0,0,19.04656,27.93494A11.57385,11.57385,0,0,1,403.63439,768.97185Z" transform="translate(-211.09726 -130.22403)" fill="#2f2e41"/><path d="M475.81051,350.27835H380.109c-17.6737-25.00341-19.748-48.91343,0-71.29391,0-9.89633,12.78255-17.9189,28.55061-17.9189h.00005c12.35162,0,23.30262,4.985,27.13873,12.35373Z" transform="translate(-211.09726 -130.22403)" fill="#2f2e41"/><path d="M435.65682,353.62749l-37.28042-8.9473c6.19168-12.6739,6.70156-26.77618,3.728-41.75406l25.35068-.74561C428.24943,320.80591,430.65254,338.20673,435.65682,353.62749Z" transform="translate(-211.09726 -130.22403)" fill="#ffb8b8"/><path d="M445.90274,469.27835c-27.13873,18.49307-46.31417.63272-60.94729-26.92346,2.03338-16.86188-1.259-37.04061-7.35671-58.96635a40.1376,40.1376,0,0,1,24.50567-48.40124l0,0,32.06116,13.421c27.22362,22.19038,32.582,46.227,22.36825,71.5784Z" transform="translate(-211.09726 -130.22403)" fill="#6c63ff"/><path d="M367.80646,372.2677l-29.82434,15.65778,52.9382,31.31555,7.366,18.16951a9.63674,9.63674,0,0,1-5.78926,12.73088h0a9.63674,9.63674,0,0,1-12.76159-8.54442l-.74489-12.66307-67.2838-22.20366a15.73308,15.73308,0,0,1-9.87265-9.61147v0a15.73306,15.73306,0,0,1,5.90261-18.30259l54.10485-37.11844Z" transform="translate(-211.09726 -130.22403)" fill="#ffb8b8"/><path d="M397.63079,375.25014c-12.43861-5.45111-23.74934.47044-38.026,5.21925l-2.23683-39.51724c14.17612-7.55568,27.69209-9.59281,40.26285-3.728Z" transform="translate(-211.09726 -130.22403)" fill="#6c63ff"/><path d="M474.05565,350.27835H452.94743c-13.13752-24.23557-12.54109-67.05554-40.77728-57.51207-18.14071-10.76664-7.73195,31.48445-12.24283,57.51207h-18.357c-4.98808-25.43029-5.05734-50.91272.81059-71.63526a9.65549,9.65549,0,0,1,3.51179-7.05923,19.95187,19.95187,0,0,1,2.94512-2.2377c6.48684-4.0867,10.84335-6.41448,20.32-6.41448a57.20354,57.20354,0,0,1,15.68763,2.15712c.6636.19439,1.31974.403,1.95349.62106.87239.29868,1.71484.6258,2.52016.97662,4.14562,1.78259,7.40384,4.19573,8.9473,7.2157C456.13119,295.20786,465.25,322.08887,474.05565,350.27835Z" transform="translate(-211.09726 -130.22403)" fill="#2f2e41"/><circle cx="201.41293" cy="167.72864" r="23.80211" fill="#ffb8b8"/><path d="M436.65233,288.77186c-7.16073-9.76016-25.83491,1.88251-48.28429,10.2009V275.85071c18.46723-8.12972,29.236-10.47468,41.48368-2.04018Z" transform="translate(-211.09726 -130.22403)" fill="#2f2e41"/><circle cx="644.14664" cy="57.65885" r="57.65885" fill="#6c63ff"/><path d="M831.21973,184.07813a3.80493,3.80493,0,1,0,0,7.60986h20.21972v20.21924a3.80469,3.80469,0,1,0,7.60938,0V191.688h20.21972a3.80493,3.80493,0,0,0,0-7.60986H859.04883V163.8584a3.80469,3.80469,0,1,0-7.60938,0v20.21973Z" transform="translate(-211.09726 -130.22403)" fill="#fff"/></svg>